File Name

Toy Story 3 2010 544p TC H264.mp4

File Size
Format : MPEG-4
Format profile : Base Media
Codec ID : isom
File size : 1.58 GiB
Duration : 1h 41mn
Overall bit rate : 2 221 Kbps

Video
ID : 1
Format : AVC
Format/Info : Advanced Video Codec
Format profile : High@L4.1
Format settings, CABAC : Yes
Format settings, ReFrames : 3 frames
Codec ID : avc1
Codec ID/Info : Advanced Video Coding
Duration : 1h 41mn
Bit rate mode : Variable
Bit rate : 2 099 Kbps
Maximum bit rate : 8 672 Kbps
Width : 1 280 pixels
Height : 544 pixels
Display aspect ratio : 2.35:1
Frame rate mode : Constant
Frame rate : 23.976 fps
Resolution : 24 bits
Colorimetry : 4:2:0
Scan type : Progressive
Bits/(Pixel*Frame) : 0.126
Stream size : 1.49 GiB (95%)

Audio 
ID : 2
Format : AAC
Format/Info : Advanced Audio Codec
Format version : Version 4
Format profile : LC
Format settings, SBR : No
Codec ID : 40
Duration : 1h 34mn
Bit rate mode : Variable
Bit rate : 128 Kbps
Maximum bit rate : 140 Kbps
Channel(s) : 2 channels
Channel positions : L R
Sampling rate : 48.0 KHz
Resolution : 16 bits
Stream size : 86.2 MiB (5%)

Text
ID : 3
Format : Timed text
Codec ID : tx3g
Duration : 1h 16mn
Bit rate mode : Variable
Bit rate : 1 bps
Stream size : 448 Bytes (0%)

English SRT : external

Language : English


 
http://www.imdb.com/title/tt435761/

Release Date: 18 June 2010 (USA) 

Genre: Animation | Adventure | Comedy | Family | Fantasy 

Plot: The toys are mistakenly delivered to a day-care center instead of the attic right before Andy leaves for college, and it's up to Woody to convince the other toys that they weren't abandoned and to return home.

Cast: 
Tom Hanks ... Woody (voice)
Tim Allen ... Buzz Lightyear (voice)
Joan Cusack ... Jessie (voice)
Ned Beatty ... Lotso (voice)
Don Rickles ... Mr. Potato Head (voice)
Michael Keaton ... Ken (voice)
Wallace Shawn ... Rex (voice)
John Ratzenberger ... Hamm (voice)
Estelle Harris ... Mrs. Potato Head (voice)
John Morris ... Andy (voice)
Jodi Benson ... Barbie (voice)
Emily Hahn ... Bonnie (voice)
Laurie Metcalf ... Andy's Mom (voice)
Blake Clark ... Slinky Dog (voice)
Teddy Newton ... Chatter Telephone (voice)







Video Source: Chinese Telecine,there is some noticable ghosting during scenes of movement.
Audio: Prism (thanks)
Subtitles: English for foreign speaking scenes

Notes: Fixed the audio synchronization,my bad on prior upload.










Screenshots:

http*://lookpic*.*com/d2/i2/594/uTuptno.jpeg

http*://lookpic*.*com/d2/i2/1683/ym4FZ0nn.png

http*://lookpic*.*com/d2/i2/583/zIe5l7Z7.png

http*://lookpic*.*com/d2/i2/1924/ZfSczkRt.png

http*://lookpic*.*com/d2/i2/827/TMgIVbwo.png